<?xml version="1.0" encoding="UTF-8"?>
<svg width="19.844mm" height="13.229mm" version="1.1" viewBox="0 0 19.844 13.229" xmlns="http://www.w3.org/2000/svg" xmlns:cc="http://creativecommons.org/ns#" xmlns:dc="http://purl.org/dc/elements/1.1/" xmlns:rdf="http://www.w3.org/1999/02/22-rdf-syntax-ns#">
 <metadata>
  <rdf:RDF>
   <cc:Work rdf:about="">
    <dc:format>image/svg+xml</dc:format>
    <dc:type rdf:resource="http://purl.org/dc/dcmitype/StillImage"/>
    <dc:title/>
   </cc:Work>
  </rdf:RDF>
 </metadata>
 <g transform="translate(-24.531 -68.527)">
  <path d="m33.107 68.527c-0.51252 0.0057-1.0363 0.17067-1.5627 0.34665-0.50292 0.1681-1.0121 0.3501-1.4701 0.43867-0.46364 0.08964-0.84744 0.08741-1.1553-0.08991l-0.3149-0.18136-4.0725 10.009v1.9408l0.15572 0.18165c0.60114 0.70209 1.5464 0.69146 2.5139 0.38428 0.9442-0.29954 1.8914-0.85171 2.7468-1.3101 0.88221-0.47297 1.6763-0.84461 2.3038-0.85578 0.54327-0.01006 0.99458 0.19488 1.4645 0.9225l0.73719 1.1421 0.73727-1.1421c0.46988-0.72762 0.9212-0.93255 1.4645-0.9225 0.62748 0.01118 1.4216 0.38282 2.3038 0.85578 0.85541 0.45844 1.8026 1.0106 2.7468 1.3101 0.96746 0.30718 1.9127 0.31781 2.5139-0.38428l0.15572-0.18165v-1.9408l-4.0725-10.009-0.31489 0.18136c-0.30788 0.17732-0.69176 0.17955-1.1554 0.08991-0.45801-0.08858-0.96713-0.27057-1.4701-0.43867-0.52637-0.17598-1.0501-0.34096-1.5627-0.34665-0.44339-0.0049-0.89291 0.12801-1.2754 0.47131l-0.07097 0.06363-0.0709-0.06363c-0.38248-0.3433-0.832-0.47622-1.2754-0.47131zm-0.03392 0.42183c0.31412-0.0036 0.58112 0.0665 0.85459 0.29678l-0.27358 7.5947c-0.4172-0.31854-0.86346-0.45333-1.3113-0.44551-0.80425 0.01397-1.6508 0.4221-2.5154 0.86396-0.8379 0.42808-1.7014 0.89839-2.467 1.1298-0.68479 0.20696-1.2494 0.2275-1.6725-0.0875l3.1618-8.5257c0.36893 0.10251 0.79343 0.07929 1.2129-0.0044 0.55348-0.11035 1.1007-0.31648 1.6053-0.49046 0.52805-0.18211 1.0122-0.32724 1.4051-0.33172zm2.7605 0c0.39299 0.0045 0.87709 0.14962 1.4051 0.33172 0.5046 0.17399 1.0518 0.38011 1.6053 0.49046 0.41948 0.08362 0.84398 0.10684 1.2129 0.0044l3.1618 8.5257c-0.42306 0.315-0.98772 0.29446-1.6725 0.0875-0.76555-0.23136-1.6291-0.70168-2.467-1.1298-0.86455-0.44186-1.7111-0.84999-2.5154-0.86396-0.44781-0.0078-0.89407 0.12697-1.3113 0.44551l-0.27358-7.5947c0.27346-0.23028 0.54047-0.30036 0.85459-0.29678zm-2.8025 0.36022c-0.54145 0.0063-1.0965 0.19056-1.6553 0.38736-0.53444 0.18827-1.0765 0.39237-1.5635 0.49181-0.27392 0.05594-0.52183 0.07989-0.74459 0.05554l-0.18467 0.53436c0.29128 0.02377 0.60098-0.0089 0.90825-0.07374 0.58941-0.12434 1.1733-0.3563 1.7104-0.55178 0.56139-0.20435 1.075-0.36693 1.491-0.37196 0.19018-0.0023 0.36345 0.02253 0.53017 0.09155l0.03061-0.50124c-0.17129-0.04456-0.34682-0.06395-0.52238-0.0619zm2.8445 0c-0.17556-2e-3 -0.35109 0.01734-0.52238 0.0619l0.03061 0.50124c0.16673-0.06902 0.34-0.09384 0.53017-0.09155 0.41598 5e-3 0.92959 0.16761 1.491 0.37196 0.53703 0.19548 1.1209 0.42744 1.7104 0.55178 0.30727 0.06482 0.61697 0.09751 0.90825 0.07374l-0.18467-0.53436c-0.22276 0.02434-0.47067 3.91e-4 -0.74459-0.05554-0.48694-0.09944-1.029-0.30354-1.5635-0.49181-0.5588-0.19681-1.1138-0.38103-1.6553-0.38736zm-2.9851 1.4464c-0.59504 0.0077-1.2083 0.23039-1.8274 0.4689-0.59398 0.22879-1.1983 0.47746-1.7396 0.59886-0.30468 0.06837-0.57979 0.09773-0.82508 0.06796l-0.22677 0.65565c0.32236 0.02925 0.66742-0.01105 1.0106-0.09078 0.65762-0.15294 1.3108-0.43729 1.9095-0.67635 0.62398-0.24921 1.193-0.44702 1.6517-0.45311 0.20952-0.0028 0.40043 0.02746 0.58376 0.11138l0.03714-0.60781c-0.18804-0.05382-0.38085-0.07718-0.57376-0.0747zm3.1257 0c-0.19292-0.0025-0.38572 0.02089-0.57376 0.0747l0.03714 0.60781c0.18332-0.08392 0.37424-0.11417 0.58376-0.11138 0.45862 0.0061 1.0277 0.20391 1.6517 0.45311 0.5987 0.23906 1.2519 0.52341 1.9095 0.67635 0.3432 0.07973 0.68826 0.12002 1.0106 0.09078l-0.22677-0.65565c-0.2453 0.02977-0.5204 3.91e-4 -0.82508-0.06796-0.5413-0.1214-1.1456-0.37007-1.7396-0.59886-0.6191-0.23852-1.2324-0.46124-1.8274-0.4689zm-3.2969 1.7635c-0.66052 0.0093-1.3456 0.28405-2.04 0.57912-0.66813 0.28389-1.3506 0.59345-1.9598 0.74508-0.34351 0.0855-0.65246 0.12226-0.92548 0.085l-0.28476 0.82353c0.36073 0.03688 0.75011-0.01396 1.1388-0.11455 0.74365-0.19243 1.4845-0.54939 2.1606-0.84837 0.70239-0.31072 1.3403-0.55636 1.8511-0.56382 0.23357-0.0036 0.4458 0.03391 0.64938 0.13804l0.04595-0.75201c-0.20814-0.06632-0.42176-0.09519-0.63584-0.09203zm3.468 0c-0.21408-0.0031-0.4277 0.02571-0.63585 0.09203l0.04595 0.75201c0.20358-0.10413 0.41581-0.14158 0.64938-0.13804 0.51084 0.0074 1.1487 0.2531 1.851 0.56382 0.67605 0.29898 1.417 0.65594 2.1607 0.84837 0.38868 0.10059 0.77807 0.15144 1.1388 0.11455l-0.28476-0.82354c-0.27302 0.03726-0.58198 5e-4 -0.92548-0.085-0.6092-0.15163-1.2917-0.46119-1.9598-0.74508-0.69432-0.29507-1.3794-0.56981-2.04-0.57912zm-3.6815 2.1975c-0.74198 0.01174-1.518 0.35901-2.3081 0.73343-0.76314 0.36176-1.5466 0.75776-2.2434 0.95224-0.39343 0.10991-0.74559 0.15704-1.0533 0.10916l-0.36832 1.0655c0.40948 0.04806 0.85625-0.01805 1.3042-0.14882 0.85537-0.24962 1.711-0.7111 2.487-1.0958 0.80304-0.3979 1.5286-0.71133 2.1054-0.72102 0.26357-0.0043 0.50275 0.04317 0.7316 0.17636l0.05846-0.95484c-0.23342-0.08383-0.47308-0.1202-0.71351-0.11629zm3.8949 0c-0.24042-0.0039-0.48009 0.03246-0.71351 0.11629l0.05846 0.95484c0.22885-0.13319 0.46804-0.18064 0.7316-0.17636 0.57677 0.0097 1.3023 0.32312 2.1054 0.72102 0.77608 0.38467 1.6317 0.84615 2.487 1.0958 0.44794 0.13077 0.89471 0.19688 1.3042 0.14882l-0.36832-1.0655c-0.30775 0.04787-0.65991 7.5e-4 -1.0533-0.10916-0.69679-0.19448-1.4802-0.59048-2.2434-0.95224-0.79009-0.37442-1.5661-0.7217-2.3081-0.73343z" color="#000000" color-rendering="auto" dominant-baseline="auto" fill="#ccc" fill-rule="evenodd" image-rendering="auto" shape-rendering="auto" solid-color="#000000" stop-color="#000000" style="font-feature-settings:normal;font-variant-alternates:normal;font-variant-caps:normal;font-variant-east-asian:normal;font-variant-ligatures:normal;font-variant-numeric:normal;font-variant-position:normal;font-variation-settings:normal;inline-size:0;isolation:auto;mix-blend-mode:normal;shape-margin:0;shape-padding:0;text-decoration-color:#000000;text-decoration-line:none;text-decoration-style:solid;text-indent:0;text-orientation:mixed;text-transform:none;white-space:normal"/>
 </g>
</svg>
