<?xml version="1.0" encoding="UTF-8"?>
<svg width="13.229mm" height="13.229mm" version="1.1" viewBox="0 0 13.229 13.229" xmlns="http://www.w3.org/2000/svg" xmlns:cc="http://creativecommons.org/ns#" xmlns:dc="http://purl.org/dc/elements/1.1/" xmlns:rdf="http://www.w3.org/1999/02/22-rdf-syntax-ns#">
 <metadata>
  <rdf:RDF>
   <cc:Work rdf:about="">
    <dc:format>image/svg+xml</dc:format>
    <dc:type rdf:resource="http://purl.org/dc/dcmitype/StillImage"/>
    <dc:title/>
   </cc:Work>
  </rdf:RDF>
 </metadata>
 <g transform="translate(-52.268 -48.664)" stroke="#ccc" stroke-linecap="round" stroke-linejoin="round">
  <rect x="54.907" y="48.926" width="10.327" height="1.6615" fill="none" stroke-width=".52445"/>
  <path d="m54.794 48.815v10.972a1.1352 1.4519 67.638 0 1 0.12418 0.22444 1.1352 1.4519 67.638 0 1 0.0572 0.28065h0.30119v-11.477z" fill="#ccc" stroke-width=".29813"/>
  <path d="m54.081 59.353a1.1352 1.4519 67.638 0 0-0.63455 0.12405 1.1352 1.4519 67.638 0 0-0.95117 1.5904 1.1352 1.4519 67.638 0 0 1.7534 0.53386 1.1352 1.4519 67.638 0 0 0.95117-1.5904 1.1352 1.4519 67.638 0 0-1.1188-0.65797zm-0.04604 0.26732a0.87932 1.1247 67.638 0 1 0.86007 0.50971 0.87932 1.1247 67.638 0 1-0.73676 1.232 0.87932 1.1247 67.638 0 1-1.3582-0.41354 0.87932 1.1247 67.638 0 1 0.73676-1.232 0.87932 1.1247 67.638 0 1 0.49812-0.09617z" fill="none" stroke-width=".33387"/>
  <path d="m64.865 48.815v10.972a1.1352 1.4519 67.638 0 1 0.12418 0.22444 1.1352 1.4519 67.638 0 1 0.0572 0.28065h0.30119v-11.477z" fill="#ccc" stroke-width=".29796"/>
  <path d="m64.152 59.353a1.1352 1.4519 67.638 0 0-0.63455 0.12405 1.1352 1.4519 67.638 0 0-0.95117 1.5904 1.1352 1.4519 67.638 0 0 1.7534 0.53386 1.1352 1.4519 67.638 0 0 0.95117-1.5904 1.1352 1.4519 67.638 0 0-1.1188-0.65797zm-0.04604 0.26732a0.87932 1.1247 67.638 0 1 0.86008 0.50971 0.87932 1.1247 67.638 0 1-0.73676 1.232 0.87932 1.1247 67.638 0 1-1.3582-0.41354 0.87932 1.1247 67.638 0 1 0.73676-1.232 0.87932 1.1247 67.638 0 1 0.49812-0.09617z" fill="none" stroke-width=".33387"/>
 </g>
</svg>
