<?xml version="1.0" encoding="UTF-8"?>
<svg width="11.853mm" height="13.229mm" version="1.1" viewBox="0 0 11.853 13.229" xmlns="http://www.w3.org/2000/svg" xmlns:cc="http://creativecommons.org/ns#" xmlns:dc="http://purl.org/dc/elements/1.1/" xmlns:rdf="http://www.w3.org/1999/02/22-rdf-syntax-ns#">
 <metadata>
  <rdf:RDF>
   <cc:Work rdf:about="">
    <dc:format>image/svg+xml</dc:format>
    <dc:type rdf:resource="http://purl.org/dc/dcmitype/StillImage"/>
    <dc:title/>
   </cc:Work>
  </rdf:RDF>
 </metadata>
 <g transform="translate(-43.089 -74.06)">
  <g fill="#ccc">
   <path d="m45.341 75.436c-1.2476 0-2.2521 1.0044-2.2521 2.2521v7.3489c0 1.2477 1.0044 2.2521 2.2521 2.2521h7.3489c1.2476 0 2.2521-1.0044 2.2521-2.2521v-7.3489c0-1.2477-1.0044-2.2521-2.2521-2.2521zm5.1964 0.50283h2.0118c0.09876 0 0.17826 0.0795 0.17826 0.17826 0 0.09876-0.0795 0.17826-0.17826 0.17826h-2.0118c-0.09876 0-0.17826-0.0795-0.17826-0.17826 0-0.09876 0.0795-0.17826 0.17826-0.17826zm-1.6386 1.9206a3.5674 3.5674 0 0 1 3.567 3.5675 3.5674 3.5674 0 0 1-3.567 3.5675 3.5674 3.5674 0 0 1-3.5675-3.5675 3.5674 3.5674 0 0 1 3.5675-3.5675z"/>
   <rect x="45.862" y="74.06" width="3.7594" height="3.1075" rx="1.8797" ry=".86282"/>
   <circle cx="48.899" cy="81.427" rx="2.664" ry="2.664" stroke="#ccc" stroke-linecap="round" stroke-linejoin="round" stroke-width=".79555"/>
  </g>
  <path d="m48.978 78.635a0.12902 0.12902 0 0 0-0.133 0.126 0.12902 0.12902 0 0 0 0.126 0.13125c1.3937 0.0394 2.4913 1.1942 2.4622 2.5882a0.12902 0.12902 0 0 0 0.126 0.13125 0.12902 0.12902 0 0 0 0.13125-0.126c0.03204-1.5327-1.18-2.8074-2.7124-2.8507z" color="#000000" color-rendering="auto" dominant-baseline="auto" fill="#fff" image-rendering="auto" shape-rendering="auto" solid-color="#000000" stop-color="#000000" style="font-feature-settings:normal;font-variant-alternates:normal;font-variant-caps:normal;font-variant-east-asian:normal;font-variant-ligatures:normal;font-variant-numeric:normal;font-variant-position:normal;font-variation-settings:normal;inline-size:0;isolation:auto;mix-blend-mode:normal;shape-margin:0;shape-padding:0;text-decoration-color:#000000;text-decoration-line:none;text-decoration-style:solid;text-indent:0;text-orientation:mixed;text-transform:none;white-space:normal"/>
 </g>
</svg>
